# xmcd
#
# Track frame offsets:
# 150
# 15630
# 26275
# 41415
# 53180
# 66200
# 79405
# 92800
# 105465
# 119275
# 133805
# 148725
# 163635
# 174250
# 190975
# 202720
# 219525
# 235860
# 252135
# 264160
#
# Disc length: 3737 seconds
#
#
# Revision: 0
# Processed by: cddbd v1.5.2PL0 Copyright (c) Steve Scherf et al.
# Submitted via: FreeRIP 2.95 
#
DISCID=0c0e9714
DTITLE=Lourenço e Lourival - 20 preferidas
DYEAR=1900
DGENRE=Country
TTITLE0=Meu reino encantado
TTITLE1=Solidão
TTITLE2=Rainha do paraná
TTITLE3=A caneta e a enxada
TTITLE4=Lar feliz
TTITLE5=Encanto da naturaza
TTITLE6=Você sé quer ganhar no grito
TTITLE7=Casinha pobresinha
TTITLE8=Fonte de renda
TTITLE9=Vou tirar você deste lugar
TTITLE10=Amor distante
TTITLE11=A rua em que você morava
TTITLE12=Motorista particular
TTITLE13=Eu preciso de você
TTITLE14=Não amo nimguém
TTITLE15=Drama
TTITLE16=Evolução da minha terra
TTITLE17=O telefone chora
TTITLE18=O carreteiro
TTITLE19=Simplesmente boiadeiro
EXTD=
EXTT0=
EXTT1=
EXTT2=
EXTT3=
EXTT4=
EXTT5=
EXTT6=
EXTT7=
EXTT8=
EXTT9=
EXTT10=
EXTT11=
EXTT12=
EXTT13=
EXTT14=
EXTT15=
EXTT16=
EXTT17=
EXTT18=
EXTT19=
PLAYORDER=
